<svg id="Layer_1" data-name="Layer 1" xmlns="http://www.w3.org/2000/svg" viewBox="0 0 506.45 617.29"><defs><style>.cls-1{fill:#2f3485;}</style></defs><title>Artboard 1</title><path class="cls-1" d="M321.11,119.41A77.06,77.06,0,0,0,186.6,194.25l69,139.3,69-139.3A76.59,76.59,0,0,0,321.11,119.41Zm-65.48,74.54a30.72,30.72,0,1,1,30.72-30.72A30.72,30.72,0,0,1,255.64,193.95Z"/><path class="cls-1" d="M382.09,196.23a179.16,179.16,0,0,0-35-27.28,90.41,90.41,0,0,1-2.92,15.53,165.44,165.44,0,0,1,27.53,22.16c64,64,64,168.09,0,232.07A164.1,164.1,0,1,1,139.6,206.65a165.45,165.45,0,0,1,27.53-22.16,90.38,90.38,0,0,1-2.92-15.53,178.85,178.85,0,1,0,217.88,27.28Z"/><path class="cls-1" d="M290.79,295.81a44.31,44.31,0,1,1-70.31,0l-7.1-14.32a59,59,0,1,0,84.5,0Z"/></svg>